<svg xmlns="http://www.w3.org/2000/svg" version="1.1" viewBox="0 0 64 64"><path d="M28.54 62.00L4.29 48.00L4.29 16.00L18.14 25.07L18.14 30.27L25.07 30.27L25.07 28.00L32.00 32.00L32.00 40.00L25.07 36.00L25.07 33.73L18.14 33.73L18.14 38.93L28.54 46.00Z" fill="#468ace"/><path d="M4.29 16.00L32.00 0.00L59.71 16.00L45.86 25.07L32.00 16.00L18.14 25.07ZM25.07 28.00L32.00 24.00L38.93 28.00L32.00 32.00Z" fill="#3579bd"/><path d="M59.71 16.00L59.71 48.00L35.46 62.00L35.46 46.00L45.86 38.93L45.86 33.73L38.93 33.73L38.93 36.00L32.00 40.00L32.00 32.00L38.93 28.00L38.93 30.27L45.86 30.27L45.86 25.07Z" fill="#2468ac"/></svg>